<svg xmlns="http://www.w3.org/2000/svg" viewBox="0 0 120 120"><g fill="none" stroke="#c79a3a" stroke-opacity="0.42" stroke-width="3.2" stroke-linecap="round" stroke-linejoin="round"><path d="M60 110 V44"/><path d="M60 52 q 13 -3 17 -15"/><path d="M60 52 q -13 -3 -17 -15"/><path d="M60 64 q 13 -3 17 -15"/><path d="M60 64 q -13 -3 -17 -15"/><path d="M60 76 q 13 -3 17 -15"/><path d="M60 76 q -13 -3 -17 -15"/><path d="M60 88 q 13 -3 17 -15"/><path d="M60 88 q -13 -3 -17 -15"/><path d="M60 44 q 0 -10 0 -18"/><path d="M60 42 q 11 -2 14 -14"/><path d="M60 42 q -11 -2 -14 -14"/></g></svg>