<svg xmlns="http://www.w3.org/2000/svg" viewBox="0 0 64 64">
<defs>
 <linearGradient id="g" x1="0" y1="0" x2="0" y2="1"><stop offset="0" stop-color="#fbe8b0"/><stop offset=".5" stop-color="#d8b349"/><stop offset="1" stop-color="#9c7320"/></linearGradient>
 <linearGradient id="f" x1="0" y1="1" x2="0" y2="0"><stop offset="0" stop-color="#ff9d24"/><stop offset=".6" stop-color="#ffd76a"/><stop offset="1" stop-color="#fff3c4"/></linearGradient>
</defs>
<circle cx="32.00" cy="6.00" r="5.4" fill="url(#g)"/><circle cx="45.00" cy="9.48" r="5.4" fill="url(#g)"/><circle cx="54.52" cy="19.00" r="5.4" fill="url(#g)"/><circle cx="58.00" cy="32.00" r="5.4" fill="url(#g)"/><circle cx="54.52" cy="45.00" r="5.4" fill="url(#g)"/><circle cx="45.00" cy="54.52" r="5.4" fill="url(#g)"/><circle cx="32.00" cy="58.00" r="5.4" fill="url(#g)"/><circle cx="19.00" cy="54.52" r="5.4" fill="url(#g)"/><circle cx="9.48" cy="45.00" r="5.4" fill="url(#g)"/><circle cx="6.00" cy="32.00" r="5.4" fill="url(#g)"/><circle cx="9.48" cy="19.00" r="5.4" fill="url(#g)"/><circle cx="19.00" cy="9.48" r="5.4" fill="url(#g)"/>
<circle cx="32" cy="32" r="26" fill="url(#g)"/>
<circle cx="32" cy="32" r="21" fill="#15110a"/>
<circle cx="32" cy="32" r="21" fill="none" stroke="url(#g)" stroke-width="1.4"/>
<path d="M32 16 C42 28 38.5 38 32 44 C25.5 38 22 28 32 16 Z" fill="url(#f)"/>
<path d="M32 25 C36 31 34.5 36 32 39 C29.5 36 28 31 32 25 Z" fill="#fff7d6"/>
</svg>